<?xml version="1.0" encoding="UTF-8" standalone="no"?><svg xmlns="http://www.w3.org/2000/svg" xmlns:xlink="http://www.w3.org/1999/xlink" contentScriptType="application/ecmascript" contentStyleType="text/css" height="154px" preserveAspectRatio="none" style="width:257px;height:154px;background:#FFFFFF;" version="1.1" viewBox="0 0 257 154" width="257px" zoomAndPan="magnify"><defs/><g><text fill="#000000" font-family="Serif" font-size="10" lengthAdjust="spacing" textLength="10" x="21" y="27.51">27</text><text fill="#000000" font-family="Serif" font-size="10" lengthAdjust="spacing" textLength="10" x="49" y="27.51">28</text><text fill="#000000" font-family="Serif" font-size="10" lengthAdjust="spacing" textLength="10" x="77" y="27.51">29</text><text fill="#000000" font-family="Serif" font-size="10" lengthAdjust="spacing" textLength="10" x="105" y="27.51">30</text><text fill="#000000" font-family="Serif" font-size="10" lengthAdjust="spacing" textLength="10" x="133" y="27.51">31</text><text fill="#000000" font-family="Serif" font-size="10" lengthAdjust="spacing" textLength="10" x="161" y="27.51">32</text><text fill="#000000" font-family="Serif" font-size="10" lengthAdjust="spacing" textLength="10" x="189" y="27.51">33</text><text fill="#000000" font-family="Serif" font-size="10" lengthAdjust="spacing" textLength="10" x="217" y="27.51">34</text><text fill="#000000" font-family="Serif" font-size="10" lengthAdjust="spacing" textLength="10" x="245" y="27.51">35</text><line style="stroke:#C0C0C0;stroke-width:1.0;" x1="16" x2="16" y1="16" y2="136.9917"/><line style="stroke:#C0C0C0;stroke-width:1.0;" x1="44" x2="44" y1="16" y2="136.9917"/><line style="stroke:#C0C0C0;stroke-width:1.0;" x1="72" x2="72" y1="16" y2="136.9917"/><line style="stroke:#C0C0C0;stroke-width:1.0;" x1="100" x2="100" y1="16" y2="136.9917"/><line style="stroke:#C0C0C0;stroke-width:1.0;" x1="128" x2="128" y1="16" y2="136.9917"/><line style="stroke:#C0C0C0;stroke-width:1.0;" x1="156" x2="156" y1="16" y2="136.9917"/><line style="stroke:#C0C0C0;stroke-width:1.0;" x1="184" x2="184" y1="16" y2="136.9917"/><line style="stroke:#C0C0C0;stroke-width:1.0;" x1="212" x2="212" y1="16" y2="136.9917"/><line style="stroke:#C0C0C0;stroke-width:1.0;" x1="240" x2="240" y1="16" y2="136.9917"/><line style="stroke:#C0C0C0;stroke-width:1.0;" x1="248" x2="248" y1="16" y2="136.9917"/><line style="stroke:#C0C0C0;stroke-width:1.0;" x1="0" x2="0" y1="0" y2="16"/><line style="stroke:#C0C0C0;stroke-width:1.0;" x1="124" x2="124" y1="0" y2="16"/><text fill="#000000" font-family="Serif" font-size="12" font-weight="bold" lengthAdjust="spacing" textLength="48" x="38" y="13.8121">Jul 2021</text><line style="stroke:#C0C0C0;stroke-width:1.0;" x1="248" x2="248" y1="0" y2="16"/><text fill="#000000" font-family="Serif" font-size="12" font-weight="bold" lengthAdjust="spacing" textLength="55" x="158.5" y="13.8121">Aug 2021</text><line style="stroke:#C0C0C0;stroke-width:1.0;" x1="0" x2="248" y1="0" y2="0"/><line style="stroke:#C0C0C0;stroke-width:1.0;" x1="0" x2="248" y1="16" y2="16"/><line style="stroke:#C0C0C0;stroke-width:1.0;" x1="0" x2="248" y1="29" y2="29"/><rect fill="#FEFECE" height="15.9279" style="stroke:none;stroke-width:1.0;" width="244" x="2" y="31"/><line style="stroke:#A80036;stroke-width:1.0;" x1="2" x2="246" y1="31" y2="31"/><line style="stroke:#A80036;stroke-width:1.0;" x1="2" x2="246" y1="46.9279" y2="46.9279"/><line style="stroke:#A80036;stroke-width:1.0;" x1="2" x2="2" y1="31" y2="46.9279"/><line style="stroke:#A80036;stroke-width:1.0;" x1="246" x2="246" y1="31" y2="46.9279"/><line style="stroke:#000000;stroke-width:1.0;" x1="0" x2="5" y1="71.9598" y2="71.9598"/><line style="stroke:#000000;stroke-width:1.0;" x1="49" x2="247" y1="71.9598" y2="71.9598"/><polygon fill="#000000" points="2,96.9917,7,101.9917,2,106.9917,-3,101.9917" style="stroke:#000000;stroke-width:1.0;"/><polygon fill="#000000" points="26,110.9917,31,115.9917,26,120.9917,21,115.9917" style="stroke:#000000;stroke-width:1.0;"/><polygon fill="#000000" points="150,124.9917,155,129.9917,150,134.9917,145,129.9917" style="stroke:#000000;stroke-width:1.0;"/><text fill="#000000" font-family="sans-serif" font-size="11" lengthAdjust="spacing" textLength="0" x="8" y="43.7599"/><text fill="#000000" font-family="sans-serif" font-size="18" font-weight="bold" lengthAdjust="spacing" textLength="34" x="10" y="79.8078">this</text><text fill="#000000" font-family="sans-serif" font-size="11" lengthAdjust="spacing" textLength="6" x="10" y="106.7877"><a href="csv_print_html_sample_oia.html#rid_0" target="_blank">1</a></text><text fill="#000000" font-family="sans-serif" font-size="11" lengthAdjust="spacing" textLength="6" x="34" y="120.7877"><a href="csv_print_html_sample_oia.html#rid_1" target="_blank">2</a></text><text fill="#000000" font-family="sans-serif" font-size="11" lengthAdjust="spacing" textLength="6" x="158" y="134.7877"><a href="csv_print_html_sample_oia.html#rid_2" target="_blank">3</a></text><line style="stroke:#C0C0C0;stroke-width:1.0;" x1="0" x2="248" y1="136.9917" y2="136.9917"/><line style="stroke:#C0C0C0;stroke-width:1.0;" x1="0" x2="0" y1="136.9917" y2="152.9917"/><line style="stroke:#C0C0C0;stroke-width:1.0;" x1="124" x2="124" y1="136.9917" y2="152.9917"/><text fill="#000000" font-family="Serif" font-size="12" font-weight="bold" lengthAdjust="spacing" textLength="48" x="38" y="150.8038">Jul 2021</text><line style="stroke:#C0C0C0;stroke-width:1.0;" x1="248" x2="248" y1="136.9917" y2="152.9917"/><text fill="#000000" font-family="Serif" font-size="12" font-weight="bold" lengthAdjust="spacing" textLength="55" x="158.5" y="150.8038">Aug 2021</text><line style="stroke:#C0C0C0;stroke-width:1.0;" x1="0" x2="248" y1="152.9917" y2="152.9917"/><!--MD5=[aeffc1fa72f60f08f929db560d0875aa]
@startgantt
Project starts 2021-7-01
[ ] starts 2021-7-01 and ends 2021-8-31
printscale weekly
- - <size:18><b>this</b></size> - -
[1] happens 2021-07-01
[2] happens 2021-07-07
[3] happens 2021-08-07
@endgantt

PlantUML version 1.2021.6(Fri May 14 16:09:51 JST 2021)
(GPL source distribution)
Java Runtime: OpenJDK Runtime Environment
JVM: OpenJDK 64-Bit Server VM
Default Encoding: UTF-8
Language: ja
Country: JP
--></g><style type='text/css'>a:hover {font-weight:bold;font-size:110%;}</style></svg>