<?xml version="1.0" encoding="UTF-8" standalone="no"?><svg xmlns="http://www.w3.org/2000/svg" xmlns:xlink="http://www.w3.org/1999/xlink" contentScriptType="application/ecmascript" contentStyleType="text/css" height="1046px" preserveAspectRatio="none" style="width:850px;height:1046px;" version="1.1" viewBox="0 0 850 1046" width="850px" zoomAndPan="magnify"><defs/><g><text fill="#000000" font-family="Serif" font-size="10" lengthAdjust="spacing" textLength="5" x="17" y="27.51">1</text><text fill="#000000" font-family="Serif" font-size="10" lengthAdjust="spacing" textLength="5" x="45" y="27.51">2</text><text fill="#000000" font-family="Serif" font-size="10" lengthAdjust="spacing" textLength="5" x="73" y="27.51">3</text><text fill="#000000" font-family="Serif" font-size="10" lengthAdjust="spacing" textLength="5" x="101" y="27.51">4</text><text fill="#000000" font-family="Serif" font-size="10" lengthAdjust="spacing" textLength="5" x="129" y="27.51">5</text><text fill="#000000" font-family="Serif" font-size="10" lengthAdjust="spacing" textLength="5" x="157" y="27.51">6</text><text fill="#000000" font-family="Serif" font-size="10" lengthAdjust="spacing" textLength="5" x="185" y="27.51">7</text><text fill="#000000" font-family="Serif" font-size="10" lengthAdjust="spacing" textLength="5" x="213" y="27.51">8</text><text fill="#000000" font-family="Serif" font-size="10" lengthAdjust="spacing" textLength="5" x="241" y="27.51">9</text><text fill="#000000" font-family="Serif" font-size="10" lengthAdjust="spacing" textLength="10" x="269" y="27.51">10</text><text fill="#000000" font-family="Serif" font-size="10" lengthAdjust="spacing" textLength="10" x="297" y="27.51">11</text><text fill="#000000" font-family="Serif" font-size="10" lengthAdjust="spacing" textLength="10" x="325" y="27.51">12</text><text fill="#000000" font-family="Serif" font-size="10" lengthAdjust="spacing" textLength="10" x="353" y="27.51">13</text><text fill="#000000" font-family="Serif" font-size="10" lengthAdjust="spacing" textLength="10" x="381" y="27.51">14</text><text fill="#000000" font-family="Serif" font-size="10" lengthAdjust="spacing" textLength="10" x="409" y="27.51">15</text><text fill="#000000" font-family="Serif" font-size="10" lengthAdjust="spacing" textLength="10" x="437" y="27.51">16</text><text fill="#000000" font-family="Serif" font-size="10" lengthAdjust="spacing" textLength="10" x="465" y="27.51">17</text><text fill="#000000" font-family="Serif" font-size="10" lengthAdjust="spacing" textLength="10" x="493" y="27.51">18</text><text fill="#000000" font-family="Serif" font-size="10" lengthAdjust="spacing" textLength="10" x="521" y="27.51">19</text><text fill="#000000" font-family="Serif" font-size="10" lengthAdjust="spacing" textLength="10" x="549" y="27.51">20</text><text fill="#000000" font-family="Serif" font-size="10" lengthAdjust="spacing" textLength="10" x="577" y="27.51">21</text><text fill="#000000" font-family="Serif" font-size="10" lengthAdjust="spacing" textLength="10" x="605" y="27.51">22</text><text fill="#000000" font-family="Serif" font-size="10" lengthAdjust="spacing" textLength="10" x="633" y="27.51">23</text><text fill="#000000" font-family="Serif" font-size="10" lengthAdjust="spacing" textLength="10" x="661" y="27.51">24</text><text fill="#000000" font-family="Serif" font-size="10" lengthAdjust="spacing" textLength="10" x="689" y="27.51">25</text><text fill="#000000" font-family="Serif" font-size="10" lengthAdjust="spacing" textLength="10" x="717" y="27.51">26</text><text fill="#000000" font-family="Serif" font-size="10" lengthAdjust="spacing" textLength="10" x="745" y="27.51">27</text><text fill="#000000" font-family="Serif" font-size="10" lengthAdjust="spacing" textLength="10" x="773" y="27.51">28</text><text fill="#000000" font-family="Serif" font-size="10" lengthAdjust="spacing" textLength="10" x="801" y="27.51">29</text><text fill="#000000" font-family="Serif" font-size="10" lengthAdjust="spacing" textLength="10" x="829" y="27.51">30</text><line style="stroke:#C0C0C0;stroke-width:1.0;" x1="12" x2="12" y1="16" y2="1028.423"/><line style="stroke:#C0C0C0;stroke-width:1.0;" x1="40" x2="40" y1="16" y2="1028.423"/><line style="stroke:#C0C0C0;stroke-width:1.0;" x1="68" x2="68" y1="16" y2="1028.423"/><line style="stroke:#C0C0C0;stroke-width:1.0;" x1="96" x2="96" y1="16" y2="1028.423"/><line style="stroke:#C0C0C0;stroke-width:1.0;" x1="124" x2="124" y1="16" y2="1028.423"/><line style="stroke:#C0C0C0;stroke-width:1.0;" x1="152" x2="152" y1="16" y2="1028.423"/><line style="stroke:#C0C0C0;stroke-width:1.0;" x1="180" x2="180" y1="16" y2="1028.423"/><line style="stroke:#C0C0C0;stroke-width:1.0;" x1="208" x2="208" y1="16" y2="1028.423"/><line style="stroke:#C0C0C0;stroke-width:1.0;" x1="236" x2="236" y1="16" y2="1028.423"/><line style="stroke:#C0C0C0;stroke-width:1.0;" x1="264" x2="264" y1="16" y2="1028.423"/><line style="stroke:#C0C0C0;stroke-width:1.0;" x1="292" x2="292" y1="16" y2="1028.423"/><line style="stroke:#C0C0C0;stroke-width:1.0;" x1="320" x2="320" y1="16" y2="1028.423"/><line style="stroke:#C0C0C0;stroke-width:1.0;" x1="348" x2="348" y1="16" y2="1028.423"/><line style="stroke:#C0C0C0;stroke-width:1.0;" x1="376" x2="376" y1="16" y2="1028.423"/><line style="stroke:#C0C0C0;stroke-width:1.0;" x1="404" x2="404" y1="16" y2="1028.423"/><line style="stroke:#C0C0C0;stroke-width:1.0;" x1="432" x2="432" y1="16" y2="1028.423"/><line style="stroke:#C0C0C0;stroke-width:1.0;" x1="460" x2="460" y1="16" y2="1028.423"/><line style="stroke:#C0C0C0;stroke-width:1.0;" x1="488" x2="488" y1="16" y2="1028.423"/><line style="stroke:#C0C0C0;stroke-width:1.0;" x1="516" x2="516" y1="16" y2="1028.423"/><line style="stroke:#C0C0C0;stroke-width:1.0;" x1="544" x2="544" y1="16" y2="1028.423"/><line style="stroke:#C0C0C0;stroke-width:1.0;" x1="572" x2="572" y1="16" y2="1028.423"/><line style="stroke:#C0C0C0;stroke-width:1.0;" x1="600" x2="600" y1="16" y2="1028.423"/><line style="stroke:#C0C0C0;stroke-width:1.0;" x1="628" x2="628" y1="16" y2="1028.423"/><line style="stroke:#C0C0C0;stroke-width:1.0;" x1="656" x2="656" y1="16" y2="1028.423"/><line style="stroke:#C0C0C0;stroke-width:1.0;" x1="684" x2="684" y1="16" y2="1028.423"/><line style="stroke:#C0C0C0;stroke-width:1.0;" x1="712" x2="712" y1="16" y2="1028.423"/><line style="stroke:#C0C0C0;stroke-width:1.0;" x1="740" x2="740" y1="16" y2="1028.423"/><line style="stroke:#C0C0C0;stroke-width:1.0;" x1="768" x2="768" y1="16" y2="1028.423"/><line style="stroke:#C0C0C0;stroke-width:1.0;" x1="796" x2="796" y1="16" y2="1028.423"/><line style="stroke:#C0C0C0;stroke-width:1.0;" x1="824" x2="824" y1="16" y2="1028.423"/><line style="stroke:#C0C0C0;stroke-width:1.0;" x1="848" x2="848" y1="16" y2="1028.423"/><line style="stroke:#C0C0C0;stroke-width:1.0;" x1="0" x2="0" y1="0" y2="16"/><line style="stroke:#C0C0C0;stroke-width:1.0;" x1="124" x2="124" y1="0" y2="16"/><text fill="#000000" font-family="Serif" font-size="12" font-weight="bold" lengthAdjust="spacing" textLength="51" x="36.5" y="13.8121">Jan 2021</text><line style="stroke:#C0C0C0;stroke-width:1.0;" x1="236" x2="236" y1="0" y2="16"/><text fill="#000000" font-family="Serif" font-size="12" font-weight="bold" lengthAdjust="spacing" textLength="54" x="153" y="13.8121">Feb 2021</text><line style="stroke:#C0C0C0;stroke-width:1.0;" x1="360" x2="360" y1="0" y2="16"/><text fill="#000000" font-family="Serif" font-size="12" font-weight="bold" lengthAdjust="spacing" textLength="56" x="270" y="13.8121">Mar 2021</text><line style="stroke:#C0C0C0;stroke-width:1.0;" x1="480" x2="480" y1="0" y2="16"/><text fill="#000000" font-family="Serif" font-size="12" font-weight="bold" lengthAdjust="spacing" textLength="54" x="393" y="13.8121">Apr 2021</text><line style="stroke:#C0C0C0;stroke-width:1.0;" x1="604" x2="604" y1="0" y2="16"/><text fill="#000000" font-family="Serif" font-size="12" font-weight="bold" lengthAdjust="spacing" textLength="57" x="513.5" y="13.8121">May 2021</text><line style="stroke:#C0C0C0;stroke-width:1.0;" x1="724" x2="724" y1="0" y2="16"/><text fill="#000000" font-family="Serif" font-size="12" font-weight="bold" lengthAdjust="spacing" textLength="52" x="638" y="13.8121">Jun 2021</text><line style="stroke:#C0C0C0;stroke-width:1.0;" x1="848" x2="848" y1="0" y2="16"/><text fill="#000000" font-family="Serif" font-size="12" font-weight="bold" lengthAdjust="spacing" textLength="48" x="762" y="13.8121">Jul 2021</text><line style="stroke:#C0C0C0;stroke-width:1.0;" x1="0" x2="848" y1="0" y2="0"/><line style="stroke:#C0C0C0;stroke-width:1.0;" x1="0" x2="848" y1="16" y2="16"/><line style="stroke:#C0C0C0;stroke-width:1.0;" x1="0" x2="848" y1="29" y2="29"/><rect fill="#FEFECE" height="15.9279" style="stroke:none;stroke-width:1.0;" width="844" x="2" y="31"/><line style="stroke:#A80036;stroke-width:1.0;" x1="2" x2="846" y1="31" y2="31"/><line style="stroke:#A80036;stroke-width:1.0;" x1="2" x2="846" y1="46.9279" y2="46.9279"/><line style="stroke:#A80036;stroke-width:1.0;" x1="2" x2="2" y1="31" y2="46.9279"/><line style="stroke:#A80036;stroke-width:1.0;" x1="846" x2="846" y1="31" y2="46.9279"/><line style="stroke:#000000;stroke-width:1.0;" x1="0" x2="5" y1="66.8918" y2="66.8918"/><line style="stroke:#000000;stroke-width:1.0;" x1="37" x2="847" y1="66.8918" y2="66.8918"/><polygon fill="#000000" points="2,86.8558,7,91.8558,2,96.8558,-3,91.8558" style="stroke:#000000;stroke-width:1.0;"/><polygon fill="#000000" points="110,100.8558,115,105.8558,110,110.8558,105,105.8558" style="stroke:#000000;stroke-width:1.0;"/><polygon fill="#000000" points="118,114.8558,123,119.8558,118,124.8558,113,119.8558" style="stroke:#000000;stroke-width:1.0;"/><polygon fill="#000000" points="162,128.8558,167,133.8558,162,138.8558,157,133.8558" style="stroke:#000000;stroke-width:1.0;"/><polygon fill="#000000" points="170,142.8558,175,147.8558,170,152.8558,165,147.8558" style="stroke:#000000;stroke-width:1.0;"/><polygon fill="#000000" points="198,156.8558,203,161.8558,198,166.8558,193,161.8558" style="stroke:#000000;stroke-width:1.0;"/><polygon fill="#000000" points="210,170.8558,215,175.8558,210,180.8558,205,175.8558" style="stroke:#000000;stroke-width:1.0;"/><polygon fill="#000000" points="218,184.8558,223,189.8558,218,194.8558,213,189.8558" style="stroke:#000000;stroke-width:1.0;"/><polygon fill="#000000" points="230,198.8558,235,203.8558,230,208.8558,225,203.8558" style="stroke:#000000;stroke-width:1.0;"/><polygon fill="#000000" points="234,212.8558,239,217.8558,234,222.8558,229,217.8558" style="stroke:#000000;stroke-width:1.0;"/><polygon fill="#000000" points="238,226.8558,243,231.8558,238,236.8558,233,231.8558" style="stroke:#000000;stroke-width:1.0;"/><polygon fill="#000000" points="246,240.8558,251,245.8558,246,250.8558,241,245.8558" style="stroke:#000000;stroke-width:1.0;"/><polygon fill="#000000" points="250,254.8558,255,259.8558,250,264.8558,245,259.8558" style="stroke:#000000;stroke-width:1.0;"/><polygon fill="#000000" points="258,268.8558,263,273.8558,258,278.8558,253,273.8558" style="stroke:#000000;stroke-width:1.0;"/><polygon fill="#000000" points="318,282.8558,323,287.8558,318,292.8558,313,287.8558" style="stroke:#000000;stroke-width:1.0;"/><polygon fill="#000000" points="342,296.8558,347,301.8558,342,306.8558,337,301.8558" style="stroke:#000000;stroke-width:1.0;"/><polygon fill="#000000" points="354,310.8558,359,315.8558,354,320.8558,349,315.8558" style="stroke:#000000;stroke-width:1.0;"/><polygon fill="#000000" points="382,324.8558,387,329.8558,382,334.8558,377,329.8558" style="stroke:#000000;stroke-width:1.0;"/><polygon fill="#000000" points="406,338.8558,411,343.8558,406,348.8558,401,343.8558" style="stroke:#000000;stroke-width:1.0;"/><polygon fill="#000000" points="414,352.8558,419,357.8558,414,362.8558,409,357.8558" style="stroke:#000000;stroke-width:1.0;"/><polygon fill="#000000" points="474,366.8558,479,371.8558,474,376.8558,469,371.8558" style="stroke:#000000;stroke-width:1.0;"/><polygon fill="#000000" points="490,380.8558,495,385.8558,490,390.8558,485,385.8558" style="stroke:#000000;stroke-width:1.0;"/><polygon fill="#000000" points="514,394.8558,519,399.8558,514,404.8558,509,399.8558" style="stroke:#000000;stroke-width:1.0;"/><polygon fill="#000000" points="638,408.8558,643,413.8558,638,418.8558,633,413.8558" style="stroke:#000000;stroke-width:1.0;"/><polygon fill="#000000" points="642,422.8558,647,427.8558,642,432.8558,637,427.8558" style="stroke:#000000;stroke-width:1.0;"/><polygon fill="#000000" points="646,436.8558,651,441.8558,646,446.8558,641,441.8558" style="stroke:#000000;stroke-width:1.0;"/><polygon fill="#000000" points="658,450.8558,663,455.8558,658,460.8558,653,455.8558" style="stroke:#000000;stroke-width:1.0;"/><polygon fill="#000000" points="662,464.8558,667,469.8558,662,474.8558,657,469.8558" style="stroke:#000000;stroke-width:1.0;"/><polygon fill="#000000" points="666,478.8558,671,483.8558,666,488.8558,661,483.8558" style="stroke:#000000;stroke-width:1.0;"/><polygon fill="#000000" points="674,492.8558,679,497.8558,674,502.8558,669,497.8558" style="stroke:#000000;stroke-width:1.0;"/><polygon fill="#000000" points="682,506.8558,687,511.8558,682,516.8558,677,511.8558" style="stroke:#000000;stroke-width:1.0;"/><polygon fill="#000000" points="706,520.8558,711,525.8558,706,530.8558,701,525.8558" style="stroke:#000000;stroke-width:1.0;"/><polygon fill="#000000" points="746,534.8558,751,539.8558,746,544.8558,741,539.8558" style="stroke:#000000;stroke-width:1.0;"/><line style="stroke:#000000;stroke-width:1.0;" x1="0" x2="5" y1="564.8197" y2="564.8197"/><line style="stroke:#000000;stroke-width:1.0;" x1="62" x2="847" y1="564.8197" y2="564.8197"/><polygon fill="#000000" points="14,584.7836,19,589.7836,14,594.7836,9,589.7836" style="stroke:#000000;stroke-width:1.0;"/><polygon fill="#000000" points="190,598.7836,195,603.7836,190,608.7836,185,603.7836" style="stroke:#000000;stroke-width:1.0;"/><polygon fill="#000000" points="402,612.7836,407,617.7836,402,622.7836,397,617.7836" style="stroke:#000000;stroke-width:1.0;"/><polygon fill="#000000" points="426,626.7836,431,631.7836,426,636.7836,421,631.7836" style="stroke:#000000;stroke-width:1.0;"/><line style="stroke:#000000;stroke-width:1.0;" x1="0" x2="5" y1="656.7476" y2="656.7476"/><line style="stroke:#000000;stroke-width:1.0;" x1="37" x2="847" y1="656.7476" y2="656.7476"/><polygon fill="#000000" points="18,676.7115,23,681.7115,18,686.7115,13,681.7115" style="stroke:#000000;stroke-width:1.0;"/><polygon fill="#000000" points="34,690.7115,39,695.7115,34,700.7115,29,695.7115" style="stroke:#000000;stroke-width:1.0;"/><polygon fill="#000000" points="62,704.7115,67,709.7115,62,714.7115,57,709.7115" style="stroke:#000000;stroke-width:1.0;"/><polygon fill="#000000" points="326,718.7115,331,723.7115,326,728.7115,321,723.7115" style="stroke:#000000;stroke-width:1.0;"/><polygon fill="#000000" points="438,732.7115,443,737.7115,438,742.7115,433,737.7115" style="stroke:#000000;stroke-width:1.0;"/><polygon fill="#000000" points="446,746.7115,451,751.7115,446,756.7115,441,751.7115" style="stroke:#000000;stroke-width:1.0;"/><polygon fill="#000000" points="458,760.7115,463,765.7115,458,770.7115,453,765.7115" style="stroke:#000000;stroke-width:1.0;"/><polygon fill="#000000" points="482,774.7115,487,779.7115,482,784.7115,477,779.7115" style="stroke:#000000;stroke-width:1.0;"/><polygon fill="#000000" points="750,788.7115,755,793.7115,750,798.7115,745,793.7115" style="stroke:#000000;stroke-width:1.0;"/><line style="stroke:#000000;stroke-width:1.0;" x1="0" x2="5" y1="818.6755" y2="818.6755"/><line style="stroke:#000000;stroke-width:1.0;" x1="62" x2="847" y1="818.6755" y2="818.6755"/><polygon fill="#000000" points="154,838.6394,159,843.6394,154,848.6394,149,843.6394" style="stroke:#000000;stroke-width:1.0;"/><line style="stroke:#000000;stroke-width:1.0;" x1="0" x2="5" y1="868.6033" y2="868.6033"/><line style="stroke:#000000;stroke-width:1.0;" x1="37" x2="847" y1="868.6033" y2="868.6033"/><polygon fill="#000000" points="206,888.5673,211,893.5673,206,898.5673,201,893.5673" style="stroke:#000000;stroke-width:1.0;"/><line style="stroke:#000000;stroke-width:1.0;" x1="0" x2="5" y1="918.5312" y2="918.5312"/><line style="stroke:#000000;stroke-width:1.0;" x1="37" x2="847" y1="918.5312" y2="918.5312"/><polygon fill="#000000" points="266,938.4952,271,943.4952,266,948.4952,261,943.4952" style="stroke:#000000;stroke-width:1.0;"/><polygon fill="#000000" points="526,952.4952,531,957.4952,526,962.4952,521,957.4952" style="stroke:#000000;stroke-width:1.0;"/><line style="stroke:#000000;stroke-width:1.0;" x1="0" x2="5" y1="982.4591" y2="982.4591"/><line style="stroke:#000000;stroke-width:1.0;" x1="62" x2="847" y1="982.4591" y2="982.4591"/><polygon fill="#000000" points="282,1002.423,287,1007.423,282,1012.423,277,1007.423" style="stroke:#000000;stroke-width:1.0;"/><polygon fill="#000000" points="630,1016.423,635,1021.423,630,1026.423,625,1021.423" style="stroke:#000000;stroke-width:1.0;"/><text fill="#000000" font-family="sans-serif" font-size="11" lengthAdjust="spacing" textLength="0" x="8" y="43.7599"/><text fill="#000000" font-family="sans-serif" font-size="11" lengthAdjust="spacing" textLength="22" x="10" y="71.6878">吾輩</text><text fill="#000000" font-family="sans-serif" font-size="11" lengthAdjust="spacing" textLength="22" x="10" y="96.6517">id_0</text><text fill="#000000" font-family="sans-serif" font-size="11" lengthAdjust="spacing" textLength="28" x="118" y="110.6517">id_27</text><text fill="#000000" font-family="sans-serif" font-size="11" lengthAdjust="spacing" textLength="28" x="126" y="124.6517">id_29</text><text fill="#000000" font-family="sans-serif" font-size="11" lengthAdjust="spacing" textLength="28" x="170" y="138.6517">id_40</text><text fill="#000000" font-family="sans-serif" font-size="11" lengthAdjust="spacing" textLength="28" x="178" y="152.6517">id_42</text><text fill="#000000" font-family="sans-serif" font-size="11" lengthAdjust="spacing" textLength="28" x="206" y="166.6517">id_49</text><text fill="#000000" font-family="sans-serif" font-size="11" lengthAdjust="spacing" textLength="28" x="218" y="180.6517">id_52</text><text fill="#000000" font-family="sans-serif" font-size="11" lengthAdjust="spacing" textLength="28" x="226" y="194.6517">id_54</text><text fill="#000000" font-family="sans-serif" font-size="11" lengthAdjust="spacing" textLength="28" x="238" y="208.6517">id_57</text><text fill="#000000" font-family="sans-serif" font-size="11" lengthAdjust="spacing" textLength="28" x="242" y="222.6517">id_58</text><text fill="#000000" font-family="sans-serif" font-size="11" lengthAdjust="spacing" textLength="28" x="246" y="236.6517">id_59</text><text fill="#000000" font-family="sans-serif" font-size="11" lengthAdjust="spacing" textLength="28" x="254" y="250.6517">id_61</text><text fill="#000000" font-family="sans-serif" font-size="11" lengthAdjust="spacing" textLength="28" x="258" y="264.6517">id_62</text><text fill="#000000" font-family="sans-serif" font-size="11" lengthAdjust="spacing" textLength="28" x="266" y="278.6517">id_63</text><text fill="#000000" font-family="sans-serif" font-size="11" lengthAdjust="spacing" textLength="28" x="326" y="292.6517">id_78</text><text fill="#000000" font-family="sans-serif" font-size="11" lengthAdjust="spacing" textLength="28" x="350" y="306.6517">id_83</text><text fill="#000000" font-family="sans-serif" font-size="11" lengthAdjust="spacing" textLength="28" x="362" y="320.6517">id_86</text><text fill="#000000" font-family="sans-serif" font-size="11" lengthAdjust="spacing" textLength="28" x="390" y="334.6517">id_93</text><text fill="#000000" font-family="sans-serif" font-size="11" lengthAdjust="spacing" textLength="28" x="414" y="348.6517">id_98</text><text fill="#000000" font-family="sans-serif" font-size="11" lengthAdjust="spacing" textLength="34" x="422" y="362.6517">id_100</text><text fill="#000000" font-family="sans-serif" font-size="11" lengthAdjust="spacing" textLength="34" x="482" y="376.6517">id_114</text><text fill="#000000" font-family="sans-serif" font-size="11" lengthAdjust="spacing" textLength="34" x="498" y="390.6517">id_118</text><text fill="#000000" font-family="sans-serif" font-size="11" lengthAdjust="spacing" textLength="34" x="522" y="404.6517">id_124</text><text fill="#000000" font-family="sans-serif" font-size="11" lengthAdjust="spacing" textLength="34" x="646" y="418.6517">id_150</text><text fill="#000000" font-family="sans-serif" font-size="11" lengthAdjust="spacing" textLength="34" x="650" y="432.6517">id_151</text><text fill="#000000" font-family="sans-serif" font-size="11" lengthAdjust="spacing" textLength="34" x="654" y="446.6517">id_152</text><text fill="#000000" font-family="sans-serif" font-size="11" lengthAdjust="spacing" textLength="34" x="666" y="460.6517">id_155</text><text fill="#000000" font-family="sans-serif" font-size="11" lengthAdjust="spacing" textLength="34" x="670" y="474.6517">id_156</text><text fill="#000000" font-family="sans-serif" font-size="11" lengthAdjust="spacing" textLength="34" x="674" y="488.6517">id_157</text><text fill="#000000" font-family="sans-serif" font-size="11" lengthAdjust="spacing" textLength="34" x="682" y="502.6517">id_159</text><text fill="#000000" font-family="sans-serif" font-size="11" lengthAdjust="spacing" textLength="34" x="690" y="516.6517">id_161</text><text fill="#000000" font-family="sans-serif" font-size="11" lengthAdjust="spacing" textLength="34" x="714" y="530.6517">id_167</text><text fill="#000000" font-family="sans-serif" font-size="11" lengthAdjust="spacing" textLength="34" x="754" y="544.6517">id_177</text><text fill="#000000" font-family="sans-serif" font-size="11" lengthAdjust="spacing" textLength="47" x="10" y="569.6157">人間,吾輩</text><text fill="#000000" font-family="sans-serif" font-size="11" lengthAdjust="spacing" textLength="22" x="22" y="594.5796">id_3</text><text fill="#000000" font-family="sans-serif" font-size="11" lengthAdjust="spacing" textLength="28" x="198" y="608.5796">id_47</text><text fill="#000000" font-family="sans-serif" font-size="11" lengthAdjust="spacing" textLength="28" x="410" y="622.5796">id_97</text><text fill="#000000" font-family="sans-serif" font-size="11" lengthAdjust="spacing" textLength="34" x="434" y="636.5796">id_103</text><text fill="#000000" font-family="sans-serif" font-size="11" lengthAdjust="spacing" textLength="22" x="10" y="661.5435">人間</text><text fill="#000000" font-family="sans-serif" font-size="11" lengthAdjust="spacing" textLength="22" x="26" y="686.5075">id_4</text><text fill="#000000" font-family="sans-serif" font-size="11" lengthAdjust="spacing" textLength="22" x="42" y="700.5075">id_8</text><text fill="#000000" font-family="sans-serif" font-size="11" lengthAdjust="spacing" textLength="28" x="70" y="714.5075">id_15</text><text fill="#000000" font-family="sans-serif" font-size="11" lengthAdjust="spacing" textLength="28" x="334" y="728.5075">id_80</text><text fill="#000000" font-family="sans-serif" font-size="11" lengthAdjust="spacing" textLength="34" x="446" y="742.5075">id_106</text><text fill="#000000" font-family="sans-serif" font-size="11" lengthAdjust="spacing" textLength="34" x="454" y="756.5075">id_108</text><text fill="#000000" font-family="sans-serif" font-size="11" lengthAdjust="spacing" textLength="34" x="466" y="770.5075">id_111</text><text fill="#000000" font-family="sans-serif" font-size="11" lengthAdjust="spacing" textLength="34" x="490" y="784.5075">id_116</text><text fill="#000000" font-family="sans-serif" font-size="11" lengthAdjust="spacing" textLength="34" x="758" y="798.5075">id_178</text><text fill="#000000" font-family="sans-serif" font-size="11" lengthAdjust="spacing" textLength="47" x="10" y="823.4714">人間,我慢</text><text fill="#000000" font-family="sans-serif" font-size="11" lengthAdjust="spacing" textLength="28" x="162" y="848.4354">id_38</text><text fill="#000000" font-family="sans-serif" font-size="11" lengthAdjust="spacing" textLength="22" x="10" y="873.3993">我慢</text><text fill="#000000" font-family="sans-serif" font-size="11" lengthAdjust="spacing" textLength="28" x="214" y="898.3633">id_51</text><text fill="#000000" font-family="sans-serif" font-size="11" lengthAdjust="spacing" textLength="22" x="10" y="923.3272">書斎</text><text fill="#000000" font-family="sans-serif" font-size="11" lengthAdjust="spacing" textLength="28" x="274" y="948.2911">id_65</text><text fill="#000000" font-family="sans-serif" font-size="11" lengthAdjust="spacing" textLength="34" x="534" y="962.2911">id_126</text><text fill="#000000" font-family="sans-serif" font-size="11" lengthAdjust="spacing" textLength="47" x="10" y="987.2551">吾輩,書斎</text><text fill="#000000" font-family="sans-serif" font-size="11" lengthAdjust="spacing" textLength="28" x="290" y="1012.219">id_69</text><text fill="#000000" font-family="sans-serif" font-size="11" lengthAdjust="spacing" textLength="34" x="638" y="1026.219">id_148</text><line style="stroke:#C0C0C0;stroke-width:1.0;" x1="0" x2="848" y1="1028.423" y2="1028.423"/><line style="stroke:#C0C0C0;stroke-width:1.0;" x1="0" x2="0" y1="1028.423" y2="1044.423"/><line style="stroke:#C0C0C0;stroke-width:1.0;" x1="124" x2="124" y1="1028.423" y2="1044.423"/><text fill="#000000" font-family="Serif" font-size="12" font-weight="bold" lengthAdjust="spacing" textLength="51" x="36.5" y="1042.2351">Jan 2021</text><line style="stroke:#C0C0C0;stroke-width:1.0;" x1="236" x2="236" y1="1028.423" y2="1044.423"/><text fill="#000000" font-family="Serif" font-size="12" font-weight="bold" lengthAdjust="spacing" textLength="54" x="153" y="1042.2351">Feb 2021</text><line style="stroke:#C0C0C0;stroke-width:1.0;" x1="360" x2="360" y1="1028.423" y2="1044.423"/><text fill="#000000" font-family="Serif" font-size="12" font-weight="bold" lengthAdjust="spacing" textLength="56" x="270" y="1042.2351">Mar 2021</text><line style="stroke:#C0C0C0;stroke-width:1.0;" x1="480" x2="480" y1="1028.423" y2="1044.423"/><text fill="#000000" font-family="Serif" font-size="12" font-weight="bold" lengthAdjust="spacing" textLength="54" x="393" y="1042.2351">Apr 2021</text><line style="stroke:#C0C0C0;stroke-width:1.0;" x1="604" x2="604" y1="1028.423" y2="1044.423"/><text fill="#000000" font-family="Serif" font-size="12" font-weight="bold" lengthAdjust="spacing" textLength="57" x="513.5" y="1042.2351">May 2021</text><line style="stroke:#C0C0C0;stroke-width:1.0;" x1="724" x2="724" y1="1028.423" y2="1044.423"/><text fill="#000000" font-family="Serif" font-size="12" font-weight="bold" lengthAdjust="spacing" textLength="52" x="638" y="1042.2351">Jun 2021</text><line style="stroke:#C0C0C0;stroke-width:1.0;" x1="848" x2="848" y1="1028.423" y2="1044.423"/><text fill="#000000" font-family="Serif" font-size="12" font-weight="bold" lengthAdjust="spacing" textLength="48" x="762" y="1042.2351">Jul 2021</text><line style="stroke:#C0C0C0;stroke-width:1.0;" x1="0" x2="848" y1="1044.423" y2="1044.423"/><!--MD5=[0112bae2c11d4cf319688bc9f8b7a96a]
@startgantt
Project starts 2021-1-01
[ ] starts 2021-1-01 and ends 2021-7-31
printscale weekly
- - 吾輩 - -
[id_0] happens 2021-01-01
[id_27] happens 2021-01-28
[id_29] happens 2021-01-30
[id_40] happens 2021-02-10
[id_42] happens 2021-02-12
[id_49] happens 2021-02-19
[id_52] happens 2021-02-22
[id_54] happens 2021-02-24
[id_57] happens 2021-02-27
[id_58] happens 2021-02-28
[id_59] happens 2021-03-01
[id_61] happens 2021-03-03
[id_62] happens 2021-03-04
[id_63] happens 2021-03-06
[id_78] happens 2021-03-21
[id_83] happens 2021-03-27
[id_86] happens 2021-03-30
[id_93] happens 2021-04-06
[id_98] happens 2021-04-12
[id_100] happens 2021-04-14
[id_114] happens 2021-04-29
[id_118] happens 2021-05-03
[id_124] happens 2021-05-09
[id_150] happens 2021-06-09
[id_151] happens 2021-06-10
[id_152] happens 2021-06-11
[id_155] happens 2021-06-14
[id_156] happens 2021-06-15
[id_157] happens 2021-06-16
[id_159] happens 2021-06-18
[id_161] happens 2021-06-20
[id_167] happens 2021-06-26
[id_177] happens 2021-07-06
- - 人間,吾輩 - -
[id_3] happens 2021-01-04
[id_47] happens 2021-02-17
[id_97] happens 2021-04-11
[id_103] happens 2021-04-17
- - 人間 - -
[id_4] happens 2021-01-05
[id_8] happens 2021-01-09
[id_15] happens 2021-01-16
[id_80] happens 2021-03-23
[id_106] happens 2021-04-20
[id_108] happens 2021-04-22
[id_111] happens 2021-04-25
[id_116] happens 2021-05-01
[id_178] happens 2021-07-07
- - 人間,我慢 - -
[id_38] happens 2021-02-08
- - 我慢 - -
[id_51] happens 2021-02-21
- - 書斎 - -
[id_65] happens 2021-03-08
[id_126] happens 2021-05-12
- - 吾輩,書斎 - -
[id_69] happens 2021-03-12
[id_148] happens 2021-06-07
@endgantt

PlantUML version 1.2021.5(Sun Apr 25 20:20:28 JST 2021)
(GPL source distribution)
Java Runtime: OpenJDK Runtime Environment
JVM: OpenJDK 64-Bit Server VM
Default Encoding: UTF-8
Language: ja
Country: JP
--></g></svg>